<?xml version="1.0" standalone="no"?>
<!DOCTYPE svg PUBLIC "-//W3C//DTD SVG 20010904//EN"
 "http://www.w3.org/TR/2001/REC-SVG-20010904/DTD/svg10.dtd">
<svg version="1.0" xmlns="http://www.w3.org/2000/svg"
 width="830.000000pt" height="870.000000pt" viewBox="0 0 830.000000 870.000000"
 preserveAspectRatio="xMidYMid meet">

<g transform="translate(0.000000,870.000000) scale(0.100000,-0.100000)"
fill="#000000" stroke="none">
<path d="M0 8690 c0 -7 457 -10 1350 -10 l1350 0 0 -22 c0 -48 -79 -188 -187
-334 -29 -40 -53 -76 -53 -82 0 -5 -6 -15 -14 -21 -24 -20 -49 -116 -44 -168
7 -64 17 -85 81 -177 17 -25 24 -42 17 -44 -7 -3 -5 -12 7 -26 62 -69 139
-247 144 -331 6 -103 -25 -176 -115 -267 -43 -44 -81 -69 -180 -117 -123 -60
-137 -72 -132 -116 7 -59 18 -83 39 -89 30 -7 67 3 67 19 0 17 74 27 180 25
82 -2 112 -11 109 -34 -1 -6 -1 -22 0 -36 l2 -25 11 23 c10 21 17 23 61 19 36
-3 55 1 72 14 19 15 34 18 91 13 52 -4 76 -2 99 10 17 9 35 16 40 16 6 0 29
13 53 29 59 41 124 57 292 76 80 8 165 22 190 30 25 8 66 19 92 26 46 11 46
11 37 42 -13 47 -11 87 4 87 8 0 13 10 13 23 -1 15 4 22 17 21 9 -1 17 4 17
12 0 9 12 14 35 14 39 0 55 20 55 69 0 21 -5 31 -15 31 -9 0 -15 9 -15 25 0
14 -4 25 -9 25 -4 0 -11 17 -15 38 -5 30 -2 40 14 54 22 18 27 58 8 58 -6 0
-2 10 10 23 12 13 22 35 22 49 0 14 9 37 20 51 11 14 20 28 20 31 0 4 15 26
33 50 24 33 56 55 132 95 55 28 108 51 117 51 10 0 27 13 39 29 11 16 33 35
48 42 45 23 91 59 91 74 0 7 12 23 27 35 26 20 27 20 44 3 20 -19 23 -49 35
-318 4 -82 8 -159 10 -170 1 -11 7 -52 12 -91 20 -153 117 -286 260 -357 40
-20 90 -39 110 -43 20 -3 60 -17 89 -30 28 -13 61 -24 72 -24 11 0 46 -11 77
-25 31 -14 62 -25 70 -25 14 0 27 -30 22 -51 -2 -9 16 -18 52 -26 30 -7 72
-18 92 -25 29 -8 47 -8 77 0 21 7 61 12 88 12 43 0 51 -3 61 -25 15 -33 46
-39 117 -20 74 19 128 19 191 0 62 -19 75 -19 68 0 -4 8 -12 15 -19 15 -7 0
-15 7 -19 15 -3 8 -12 15 -20 15 -8 0 -21 8 -28 18 -7 10 -26 22 -42 26 -17 4
-62 22 -100 40 -87 41 -146 102 -171 175 -20 62 -16 93 25 179 16 35 30 69 30
76 0 7 9 22 21 34 17 19 20 34 18 95 -1 39 -5 77 -9 82 -9 12 -29 96 -35 143
-3 32 -72 152 -87 152 -5 0 -8 5 -8 10 0 6 -18 34 -39 63 -22 29 -57 88 -77
131 -36 76 -38 83 -36 180 1 63 7 115 16 136 8 19 17 62 21 95 4 33 9 68 11
78 5 16 85 17 1490 17 983 0 1484 3 1484 10 0 7 -1390 10 -4150 10 -2760 0
-4150 -3 -4150 -10z m2970 -14 c0 -15 -14 -35 -21 -30 -5 3 -9 -9 -9 -25 0
-17 -4 -31 -9 -31 -5 0 -11 -8 -14 -17 -6 -27 -27 30 -27 73 0 33 1 34 40 34
22 0 40 -2 40 -4z m1490 -24 c0 -16 -9 -37 -19 -46 -11 -10 -21 -36 -24 -59
-8 -58 -31 -154 -40 -163 -4 -4 -7 -15 -7 -24 0 -9 -30 -48 -67 -86 -49 -51
-93 -83 -158 -118 -49 -27 -91 -52 -93 -57 -2 -5 -19 -11 -38 -15 -19 -3 -51
-15 -71 -25 -21 -11 -42 -19 -49 -19 -6 0 -17 -7 -24 -15 -7 -8 -15 -13 -19
-11 -3 2 -24 -7 -46 -20 -56 -34 -86 -46 -118 -49 -15 -1 -30 -5 -34 -9 -3 -3
-19 -6 -35 -6 -16 0 -58 -11 -92 -25 -49 -20 -69 -23 -93 -16 -18 5 -33 5 -35
1 -2 -7 -172 -14 -245 -11 -18 1 -36 68 -28 109 16 90 22 97 101 120 81 24 90
38 48 71 -25 19 -25 22 -11 44 43 67 142 137 191 137 9 0 16 7 16 15 0 9 -33
30 -84 54 -47 22 -106 55 -132 75 -26 20 -58 39 -71 42 -16 4 -23 13 -23 29 0
23 22 84 36 98 4 4 290 7 636 7 l628 0 0 -28z m-1310 -51 c0 -46 -11 -57 -70
-70 -25 -6 -53 -20 -64 -33 l-19 -23 6 33 c4 19 18 47 32 64 14 16 25 33 25
37 0 9 48 28 73 30 13 1 17 -7 17 -38z m1372 2 c20 -18 23 -45 8 -74 -13 -23
-28 -24 -52 -2 -22 20 -23 56 -2 77 19 20 23 20 46 -1z m-1285 -199 c-3 -3
-12 -4 -19 -1 -8 3 -5 6 6 6 11 1 17 -2 13 -5z m-364 -16 c-6 -7 -22 -42 -36
-78 -16 -39 -32 -64 -39 -62 -7 2 -10 0 -6 -4 4 -4 -1 -19 -11 -33 -10 -14
-21 -35 -26 -46 -4 -12 -9 -15 -12 -8 -2 7 12 43 33 80 61 111 93 163 100 163
4 0 2 -6 -3 -12z m204 -230 c-3 -8 -6 -5 -6 6 -1 11 2 17 5 13 3 -3 4 -12 1
-19z m43 -39 c0 -11 -6 -26 -13 -34 -11 -11 -13 -7 -13 21 1 36 26 49 26 13z
m-385 -40 c-6 -18 -10 -33 -14 -59 -1 -3 -5 1 -10 9 -5 8 -3 24 8 42 19 34 25
37 16 8z m125 -19 c-6 -12 -14 -19 -17 -17 -2 3 1 15 7 27 6 12 14 19 17 17 2
-3 -1 -15 -7 -27z m-45 -31 c-4 -5 -1 -24 5 -40 13 -29 6 -54 -8 -32 -4 7 -8
-44 -9 -112 -1 -142 -15 -187 -24 -80 -3 39 -3 72 0 75 8 7 7 58 -3 67 -4 4
-11 1 -16 -7 -14 -21 -12 3 1 37 l12 28 7 -25 c8 -24 8 -24 9 6 2 49 13 94 23
94 5 0 6 -5 3 -11z m-118 -31 c-3 -8 -6 -5 -6 6 -1 11 2 17 5 13 3 -3 4 -12 1
-19z m257 -44 c7 -19 -20 -206 -36 -246 -33 -86 -54 60 -22 157 37 113 45 124
58 89z m-207 -126 c-2 -13 -4 -5 -4 17 -1 22 1 32 4 23 2 -10 2 -28 0 -40z
m823 -658 c-12 -8 -13 -12 -2 -19 10 -6 8 -10 -10 -14 -36 -10 -48 -8 -48 8 0
17 27 34 55 35 17 0 17 -2 5 -10z m-1038 -139 c-29 -28 -52 -54 -52 -59 0 -6
-24 -13 -52 -17 -29 -4 -70 -11 -91 -16 -28 -7 -43 -7 -53 2 -22 18 -17 45 11
57 35 16 36 16 30 -15 -5 -22 -4 -24 4 -12 6 9 50 31 99 48 49 18 102 40 118
50 46 29 41 15 -14 -38z m222 -35 c-8 -21 -48 -38 -69 -30 -21 8 -19 24 3 24
9 1 28 7 42 15 29 16 33 14 24 -9z"/>
<path d="M2328 6380 c-16 -17 -28 -39 -28 -49 0 -11 -6 -32 -14 -48 -8 -15
-20 -59 -26 -98 -10 -61 -34 -136 -86 -265 -7 -19 -18 -73 -24 -119 -5 -46
-17 -95 -25 -107 -8 -13 -15 -35 -15 -50 0 -31 -24 -86 -57 -130 -13 -17 -23
-39 -23 -48 0 -10 -9 -31 -21 -47 -19 -27 -52 -104 -66 -154 -3 -11 -11 -27
-18 -35 -7 -8 -18 -54 -25 -102 -13 -88 -26 -112 -32 -60 -2 15 -7 26 -13 25
-5 0 -18 3 -27 8 -14 8 -19 4 -24 -18 -4 -16 -15 -39 -25 -53 -12 -18 -19 -55
-23 -140 -4 -63 -11 -117 -17 -120 -6 -4 -9 -80 -9 -191 0 -214 -17 -724 -24
-755 -3 -12 0 -27 8 -33 11 -9 15 -6 20 14 4 14 23 43 42 65 26 29 34 45 29
60 -5 14 -2 20 10 20 8 0 20 11 26 24 7 15 26 28 50 35 27 8 43 20 49 37 11
28 19 30 46 9 25 -19 44 -19 44 0 0 8 6 15 13 15 36 -1 134 -125 143 -180 4
-25 10 -37 14 -29 5 7 16 9 26 5 15 -6 16 -9 4 -16 -12 -8 -12 -16 -2 -52 40
-136 60 -244 61 -330 1 -51 6 -131 11 -178 5 -47 12 -157 15 -244 3 -88 9
-162 14 -165 5 -4 11 -20 13 -36 2 -18 15 31 32 120 16 83 39 204 52 270 36
190 47 354 48 737 1 196 4 354 7 350 8 -9 54 -185 78 -302 40 -186 71 -381 80
-490 16 -196 -16 -532 -85 -906 -14 -73 -29 -190 -34 -260 -5 -71 -14 -144
-19 -161 -5 -18 -7 -33 -3 -33 3 0 1 -5 -6 -12 -7 -7 -12 -22 -12 -35 0 -12
-8 -55 -19 -95 -10 -40 -24 -95 -30 -123 -12 -50 -66 -205 -82 -237 -5 -10 -6
-24 -3 -32 3 -8 -2 -26 -11 -40 -10 -14 -15 -35 -12 -47 3 -12 -2 -29 -11 -40
-15 -18 -21 -48 -22 -122 -1 -15 -5 -39 -10 -52 -7 -19 -6 -25 4 -25 8 0 16
-9 19 -20 3 -13 11 -18 20 -14 12 4 14 0 10 -14 -2 -11 0 -23 6 -26 6 -4 11
-23 11 -42 0 -25 4 -34 18 -35 109 -4 107 -4 108 16 3 38 5 40 19 21 8 -11 16
-18 18 -15 1 2 15 21 31 42 15 20 30 53 33 72 4 24 11 35 23 35 30 0 31 13 3
25 l-28 12 38 7 c22 4 37 13 37 21 0 17 36 39 49 30 5 -3 12 3 16 14 4 13 18
20 48 24 44 6 87 45 87 80 0 25 14 21 48 -12 44 -45 385 -439 404 -469 9 -14
27 -35 40 -47 34 -32 130 -143 172 -197 19 -26 45 -57 56 -68 12 -12 20 -33
20 -54 0 -19 5 -38 11 -42 15 -9 6 -183 -9 -193 -12 -7 -10 -164 3 -263 5 -35
3 -75 -3 -100 -6 -24 -13 -55 -17 -71 l-5 -27 266 2 266 3 4 65 c2 36 4 75 4
88 0 12 4 22 9 22 11 0 45 224 38 252 -3 11 1 34 9 49 7 15 14 39 14 52 0 13
7 32 15 43 19 25 19 34 0 34 -20 0 -10 47 16 76 11 11 19 32 19 47 0 28 11 53
43 96 9 13 17 32 17 43 0 10 7 21 15 24 8 4 15 14 15 23 0 21 34 88 58 115 39
43 56 79 67 147 7 38 9 69 5 69 -11 0 -32 141 -22 154 4 6 9 24 11 41 4 39
104 239 173 346 73 112 184 264 268 364 157 188 319 411 361 498 26 53 16 50
167 47 106 -2 232 17 232 35 0 7 -9 20 -19 29 -18 17 -22 17 -68 0 -132 -47
-351 -4 -497 99 -25 18 -38 19 -120 13 -50 -3 -103 -9 -117 -12 -22 -5 -26 -2
-25 13 2 27 -18 32 -22 6 -4 -26 -22 -32 -22 -7 0 8 -5 12 -10 9 -6 -4 -8 -14
-5 -24 4 -14 -8 -21 -72 -39 -120 -35 -308 -70 -339 -64 -96 17 -58 105 58
132 83 20 225 67 266 89 20 10 62 27 92 36 30 9 67 27 82 40 15 13 33 25 40
28 22 7 5 15 -46 21 -56 7 -281 -25 -347 -49 -24 -9 -60 -21 -79 -27 -19 -5
-46 -16 -60 -23 -36 -20 -281 -95 -308 -95 -30 0 -78 25 -86 45 -14 36 -6 55
32 73 77 39 122 38 122 -4 0 -13 4 -24 9 -24 4 0 8 17 7 38 -1 34 3 39 38 56
21 10 41 15 45 10 12 -17 32 -15 29 3 -2 14 24 31 107 74 115 59 145 67 145
37 0 -10 5 -18 12 -18 6 0 9 -3 5 -6 -13 -14 22 -60 47 -62 29 -2 32 3 12 23
-10 10 -16 11 -25 2 -16 -16 -13 4 4 27 11 14 11 22 2 36 -6 10 -14 17 -17 15
-4 -2 -7 2 -7 10 0 17 3 18 135 45 57 11 108 22 113 26 23 14 4 21 -58 21 -38
1 -107 5 -156 8 -48 4 -93 3 -100 -2 -16 -12 -110 -48 -177 -68 -30 -9 -65
-21 -77 -27 -11 -6 -26 -8 -31 -4 -5 3 -15 0 -21 -8 -6 -7 -49 -26 -94 -41
-83 -28 -85 -28 -121 -11 -45 21 -65 58 -46 81 21 25 107 66 125 59 19 -8 29
-45 20 -76 -6 -18 -5 -21 5 -11 17 16 30 103 16 103 -6 0 2 7 18 15 25 14 32
14 59 0 17 -8 33 -13 35 -10 3 3 -1 5 -8 5 -10 0 -9 5 3 18 10 10 17 25 17 34
0 18 176 102 197 94 8 -3 11 -1 8 4 -3 6 1 10 9 10 8 0 18 -5 21 -10 5 -8 11
-7 21 1 11 9 15 8 20 -5 3 -9 10 -16 15 -16 4 0 6 6 3 14 -3 8 -1 17 4 20 6 3
13 -1 16 -10 3 -9 13 -14 20 -11 8 3 17 1 20 -6 4 -7 4 3 1 21 l-4 32 67 -1
c37 0 92 -4 122 -8 66 -10 74 -7 89 25 13 28 6 48 -14 40 -7 -2 -21 1 -31 9
-11 7 -39 19 -63 26 -29 8 -53 25 -74 51 -29 36 -59 49 -71 29 -5 -8 -68 0
-106 13 -8 3 -82 12 -165 21 -123 14 -157 21 -192 42 -35 20 -43 30 -43 54 0
34 16 43 97 54 43 6 54 4 71 -13 18 -18 19 -18 41 0 23 18 62 16 88 -4 7 -6
19 -5 32 1 11 6 57 11 103 11 73 0 88 -3 121 -25 20 -14 37 -21 37 -15 0 18
22 11 27 -10 6 -22 23 -26 40 -9 14 14 74 -12 177 -79 82 -53 102 -57 92 -16
-4 13 3 94 14 181 10 87 33 266 50 398 32 256 66 473 80 510 5 13 5 51 -1 87
-5 34 -16 131 -24 213 -31 316 -42 381 -100 645 -17 74 -19 130 -6 130 11 0
33 59 25 71 -3 5 -17 9 -32 9 -15 0 -48 11 -73 24 -48 26 -69 21 -69 -15 0
-15 -23 -17 -227 -22 -301 -6 -440 -35 -622 -127 -243 -122 -389 -387 -408
-739 -4 -91 -9 -118 -15 -100 -5 13 -15 27 -23 31 -7 5 -17 23 -20 41 -4 17
-13 35 -19 39 -16 10 -15 326 2 408 18 91 59 183 127 290 96 150 100 160 60
160 -18 0 -25 -5 -25 -18 0 -11 -9 -27 -20 -37 -23 -21 -55 -80 -85 -160 -13
-33 -37 -87 -54 -120 -17 -33 -31 -64 -31 -68 0 -5 -6 -23 -14 -40 -8 -18 -26
-66 -41 -107 -15 -41 -34 -86 -41 -100 -7 -14 -18 -43 -24 -66 -15 -61 -49
-104 -105 -134 -65 -35 -103 -42 -109 -21 -3 9 -10 59 -15 112 -31 282 -156
478 -374 584 -104 50 -241 85 -339 85 -35 0 -58 5 -60 12 -3 9 -12 9 -36 -1
-41 -17 -45 -13 -26 24 35 66 38 125 7 125 -20 0 -12 54 21 148 12 37 29 95
36 130 7 34 17 65 21 68 11 6 12 24 2 24 -5 0 -20 -14 -35 -30z m988 -1269
c-5 -7 6 -61 36 -178 6 -23 8 -54 4 -67 -4 -18 -1 -31 13 -45 20 -20 11 -41
-16 -41 -8 0 -23 -9 -35 -20 -17 -15 -19 -22 -9 -34 7 -8 11 -20 10 -28 -4
-36 2 -48 25 -48 14 0 28 5 31 10 3 6 12 10 18 10 7 0 4 -7 -5 -14 -17 -12
-17 -14 0 -28 27 -24 59 -38 85 -38 28 0 51 -30 59 -75 3 -16 13 -68 21 -115
9 -47 23 -161 31 -255 9 -93 23 -233 31 -310 28 -265 59 -851 52 -993 -9 -200
-79 -349 -191 -409 -31 -16 -129 -13 -180 7 -34 13 -159 137 -151 150 4 6 1 9
-7 8 -8 -2 -13 7 -13 25 1 15 -5 27 -12 27 -7 0 -15 12 -19 28 -4 15 -12 36
-19 47 -14 23 -24 66 -33 145 -11 87 -6 818 6 890 11 69 19 117 29 190 3 25 7
54 9 65 2 11 5 35 8 54 2 19 7 54 11 79 5 32 3 42 -5 37 -8 -5 -11 0 -8 16 2
17 8 23 22 21 11 -2 16 1 13 10 -2 7 -10 12 -16 11 -14 -4 -15 -14 14 129 14
68 25 125 25 128 0 3 25 18 55 34 52 26 77 46 57 46 -5 0 -17 26 -27 58 -9 31
-21 72 -27 90 -5 18 -20 39 -32 48 -18 11 -22 21 -18 42 2 15 9 32 14 38 4 6
5 19 2 28 -4 9 1 41 11 71 13 41 28 64 66 97 27 24 49 49 49 56 0 6 5 12 11
12 5 0 8 -4 5 -9z m204 -348 c0 -27 3 -59 6 -73 5 -17 4 -22 -4 -15 -16 15
-28 135 -13 135 6 0 11 -19 11 -47z m-53 10 c13 -14 23 -31 24 -37 7 -64 6
-76 -6 -76 -8 0 -19 -2 -27 -5 -14 -5 -30 35 -43 108 -6 32 -5 37 11 37 10 0
29 -12 41 -27z m1045 -1585 c-7 -7 -12 -8 -12 -2 0 6 3 14 7 17 3 4 9 5 12 2
2 -3 -1 -11 -7 -17z m-1972 -1829 c0 -5 -4 -9 -10 -9 -5 0 -10 7 -10 16 0 8 5
12 10 9 6 -3 10 -10 10 -16z m-85 -169 c-3 -5 -12 -10 -18 -10 -7 0 -6 4 3 10
19 12 23 12 15 0z"/>
<path d="M3396 3068 c-3 -18 -8 -50 -11 -70 -3 -21 -1 -39 5 -43 6 -4 8 -16 5
-26 -4 -11 -2 -25 3 -32 17 -21 21 -71 10 -125 -6 -29 -8 -55 -5 -59 12 -11
37 19 37 46 0 16 3 21 8 14 5 -9 15 2 30 32 14 28 18 47 11 51 -6 3 -8 12 -5
20 3 8 0 14 -5 14 -8 0 -9 20 -5 63 6 56 5 65 -13 81 -12 11 -21 30 -21 43 0
16 -6 23 -20 23 -14 0 -20 -9 -24 -32z"/>
<path d="M3435 4780 c-3 -5 -1 -10 4 -10 6 0 11 5 11 10 0 6 -2 10 -4 10 -3 0
-8 -4 -11 -10z"/>
<path d="M3446 4720 c7 -48 10 -57 20 -48 3 4 -2 26 -10 50 l-16 43 6 -45z"/>
<path d="M1850 5975 c-7 -8 -10 -25 -7 -37 4 -13 0 -26 -10 -33 -9 -7 -17 -21
-18 -31 -1 -10 -6 -27 -10 -37 -4 -11 -3 -23 4 -30 8 -8 11 -7 11 7 0 9 5 14
10 11 6 -3 10 -18 10 -33 0 -21 2 -24 10 -12 8 12 12 13 19 1 5 -8 9 14 10 58
1 40 8 90 15 111 13 39 13 40 -9 40 -12 0 -28 -7 -35 -15z"/>
<path d="M5645 5919 c-4 -5 -19 -9 -33 -7 -21 2 -26 -1 -24 -14 2 -14 -4 -18
-27 -18 -17 0 -34 -6 -38 -14 -4 -8 -24 -18 -43 -23 -30 -8 -35 -14 -38 -43
-4 -34 -29 -63 -69 -80 -13 -5 -23 -17 -24 -27 -2 -40 3 -88 13 -112 6 -14 11
-48 12 -74 1 -32 7 -53 17 -60 17 -13 26 -103 9 -92 -15 9 -24 -23 -11 -39 6
-7 9 -21 5 -30 -10 -27 11 -18 37 15 13 17 26 34 29 38 3 3 18 11 35 16 17 6
31 19 34 30 3 17 1 18 -13 6 -14 -12 -16 -9 -16 23 0 20 -5 36 -11 36 -8 0 -8
5 1 15 15 19 34 19 49 2 8 -10 7 -17 -1 -25 -9 -9 -8 -12 5 -12 9 0 17 5 17
11 0 6 8 8 18 5 13 -5 36 10 78 50 100 95 191 125 261 87 18 -10 89 -72 158
-138 70 -66 133 -126 140 -132 7 -7 25 -17 40 -23 16 -6 23 -14 19 -22 -4 -7
-3 -8 4 -4 14 8 63 -34 55 -47 -3 -6 -1 -7 5 -3 7 4 17 -3 24 -19 8 -18 14
-22 20 -13 6 10 8 9 8 -4 0 -9 6 -21 13 -25 6 -4 37 -37 67 -73 61 -73 91
-101 102 -94 4 3 8 0 8 -5 0 -14 92 -107 102 -104 4 2 7 0 6 -5 -2 -4 25 -36
60 -71 34 -36 62 -67 62 -71 0 -3 35 -40 78 -81 42 -42 96 -98 118 -125 23
-27 67 -79 98 -116 31 -37 56 -71 56 -75 0 -4 -22 -24 -47 -43 -101 -75 -147
-122 -135 -135 4 -5 -3 -5 -15 -2 -16 3 -23 1 -23 -9 0 -8 -8 -17 -17 -21 -27
-9 -50 -37 -45 -52 3 -9 0 -11 -7 -7 -7 4 -18 2 -26 -4 -8 -7 -15 -10 -15 -6
0 3 -14 -8 -31 -26 -17 -18 -28 -27 -24 -20 3 6 4 12 2 12 -8 0 -58 -50 -50
-50 4 0 0 -5 -10 -11 -9 -5 -22 -7 -29 -3 -7 4 -8 3 -4 -4 6 -10 -27 -35 -49
-37 -5 -1 -9 -6 -8 -13 2 -6 -4 -9 -12 -6 -10 4 -15 0 -15 -11 0 -9 -4 -13
-10 -10 -5 3 -15 3 -22 -1 -8 -5 -6 -10 8 -15 15 -6 11 -8 -16 -9 -19 -1 -29
-4 -22 -7 22 -9 13 -25 -11 -19 -14 3 -32 -1 -43 -9 -16 -13 -17 -14 -1 -9 13
5 16 2 11 -10 -8 -20 14 -21 40 -1 11 8 27 15 37 15 9 0 22 6 28 14 7 8 34 17
61 21 40 5 49 11 52 28 2 14 10 22 23 22 14 0 21 8 23 28 3 23 8 27 33 27 18
0 28 4 24 10 -3 6 3 10 15 10 13 0 24 10 31 27 7 19 12 24 18 14 6 -9 22 2 58
38 28 28 56 51 61 51 6 0 19 14 29 31 10 17 35 40 55 50 21 11 37 25 35 31 -1
7 8 14 21 16 12 2 27 13 33 24 7 12 14 16 18 10 3 -6 31 13 66 45 33 30 83 66
112 79 28 14 66 38 83 54 18 17 38 30 45 30 8 0 16 4 19 9 7 11 -4 74 -12 67
-2 -3 -13 5 -23 18 -17 21 -23 23 -56 15 -21 -5 -57 -9 -81 -9 -24 0 -56 -7
-72 -15 -17 -9 -30 -11 -30 -6 0 5 -15 13 -32 16 -18 4 -37 11 -43 15 -5 4
-25 10 -44 14 -50 9 -159 66 -184 95 -12 15 -35 36 -52 48 -16 12 -52 49 -80
83 -75 91 -134 150 -150 150 -8 0 -15 7 -15 16 0 9 -8 28 -19 42 -10 15 -22
37 -25 50 -4 12 -21 29 -37 37 -16 9 -29 21 -29 28 0 15 -166 192 -179 192
-14 0 -81 72 -81 87 -1 7 -25 29 -55 48 -38 24 -58 45 -66 67 -12 37 -52 73
-80 73 -12 0 -24 13 -33 35 -8 19 -30 48 -48 64 -18 16 -46 52 -63 79 -18 31
-39 53 -53 57 -13 3 -35 17 -48 30 -14 14 -38 32 -54 40 -33 17 -116 20 -125
4z m1390 -1709 c-3 -5 -12 -10 -18 -10 -7 0 -6 4 3 10 19 12 23 12 15 0z"/>
<path d="M1820 5730 c0 -5 7 -10 15 -10 8 0 15 5 15 10 0 6 -7 10 -15 10 -8 0
-15 -4 -15 -10z"/>
<path d="M5465 5320 c-3 -6 1 -7 9 -4 18 7 21 14 7 14 -6 0 -13 -4 -16 -10z"/>
<path d="M6469 3785 c-1 -5 -1 -13 0 -17 0 -5 -11 -8 -25 -8 -14 0 -23 -4 -19
-10 3 -5 0 -10 -7 -10 -7 0 -19 -9 -26 -21 -12 -19 -12 -20 10 -14 13 4 25 11
28 14 3 4 17 16 32 27 19 15 24 25 17 35 -5 8 -9 10 -10 4z"/>
<path d="M1702 3745 c0 -16 2 -22 5 -12 2 9 2 23 0 30 -3 6 -5 -1 -5 -18z"/>
<path d="M6312 3693 c6 -7 15 -13 20 -13 5 0 15 6 22 13 11 11 7 13 -20 13
-26 0 -31 -3 -22 -13z"/>
<path d="M6195 3652 c-16 -10 -51 -27 -77 -36 -26 -10 -49 -24 -52 -32 -8 -20
30 -27 61 -10 22 12 24 15 9 16 -16 0 -17 2 -5 16 8 10 22 14 40 10 32 -6 101
15 107 32 5 15 -13 15 -41 0 -20 -10 -21 -10 -8 5 18 22 3 21 -34 -1z m5 -16
c0 -3 -4 -8 -10 -11 -5 -3 -10 -1 -10 4 0 6 5 11 10 11 6 0 10 -2 10 -4z"/>
<path d="M6017 3563 c-4 -3 -7 -16 -6 -27 0 -14 2 -16 6 -6 3 8 12 21 21 28
14 10 14 12 1 12 -9 0 -19 -3 -22 -7z"/>
<path d="M5980 3542 c0 -5 -15 -17 -34 -27 -30 -16 -32 -20 -20 -33 13 -12 17
-11 34 9 11 13 24 29 30 36 6 8 6 14 0 18 -6 3 -10 2 -10 -3z"/>
<path d="M5870 3470 c-9 -6 -10 -10 -3 -10 6 0 15 5 18 10 8 12 4 12 -15 0z"/>
<path d="M5755 3420 c-16 -7 -17 -9 -3 -9 9 -1 20 4 23 9 7 11 7 11 -20 0z"/>
<path d="M5680 3389 c-19 -11 -51 -24 -71 -30 -36 -11 -37 -12 -34 -57 2 -26
8 -48 14 -50 6 -2 11 -16 11 -32 0 -35 20 -43 59 -24 26 13 31 21 31 51 0 19
7 50 16 69 16 32 15 36 -1 54 -16 18 -16 20 -2 20 9 0 19 5 22 10 9 15 -6 11
-45 -11z"/>
<path d="M5692 3169 c2 -7 10 -15 17 -17 8 -3 12 1 9 9 -2 7 -10 15 -17 17 -8
3 -12 -1 -9 -9z"/>
<path d="M1612 3030 c0 -14 2 -19 5 -12 2 6 2 18 0 25 -3 6 -5 1 -5 -13z"/>
<path d="M1600 2944 c0 -11 3 -36 6 -57 8 -43 31 -48 45 -10 6 16 5 22 -4 20
-6 -1 -13 8 -15 20 -2 12 -10 27 -18 33 -11 10 -14 9 -14 -6z"/>
<path d="M1611 2824 c0 -11 3 -14 6 -6 3 7 2 16 -1 19 -3 4 -6 -2 -5 -13z"/>
<path d="M1604 2754 c-4 -10 -9 -22 -11 -26 -2 -5 3 -8 12 -8 20 0 31 28 17
42 -8 8 -13 6 -18 -8z"/>
<path d="M1577 2633 c-13 -13 -7 -32 8 -27 8 4 15 12 15 20 0 15 -12 19 -23 7z"/>
<path d="M2242 2450 c0 -14 2 -19 5 -12 2 6 2 18 0 25 -3 6 -5 1 -5 -13z"/>
<path d="M2217 2343 c-4 -3 -7 -18 -7 -33 0 -14 -5 -31 -11 -37 -11 -11 -41
-152 -40 -189 0 -12 -6 -27 -14 -34 -7 -6 -12 -17 -9 -25 3 -7 1 -16 -5 -19
-6 -4 -8 -13 -5 -20 3 -7 -4 -57 -15 -112 -11 -54 -22 -128 -25 -164 -5 -79 3
-51 34 110 12 63 30 153 40 200 47 216 68 325 66 327 -1 2 -6 0 -9 -4z"/>
<path d="M1573 2165 c0 -22 2 -30 4 -17 2 12 2 30 0 40 -3 9 -5 -1 -4 -23z"/>
<path d="M1592 1980 c0 -14 2 -19 5 -12 2 6 2 18 0 25 -3 6 -5 1 -5 -13z"/>
<path d="M1580 1598 c0 -7 5 -20 10 -28 8 -12 10 -9 10 13 0 15 -4 27 -10 27
-5 0 -10 -6 -10 -12z"/>
<path d="M2041 1464 c0 -11 3 -14 6 -6 3 7 2 16 -1 19 -3 4 -6 -2 -5 -13z"/>
<path d="M1620 1445 c0 -8 5 -15 10 -15 6 0 10 7 10 15 0 8 -4 15 -10 15 -5 0
-10 -7 -10 -15z"/>
<path d="M2032 1380 c0 -19 2 -27 5 -17 2 9 2 25 0 35 -3 9 -5 1 -5 -18z"/>
<path d="M1590 1356 c0 -9 5 -16 10 -16 6 0 10 4 10 9 0 6 -4 13 -10 16 -5 3
-10 -1 -10 -9z"/>
<path d="M1583 1306 c9 -7 17 -18 17 -23 0 -6 7 -16 16 -24 14 -11 15 -9 12
21 -3 31 -7 35 -33 37 -27 2 -28 0 -12 -11z"/>
<path d="M1666 1241 c-3 -5 -3 -16 0 -25 5 -12 -1 -14 -30 -9 -42 7 -51 -13
-11 -23 15 -4 25 -13 25 -24 0 -10 3 -25 6 -34 4 -10 -1 -19 -14 -23 -11 -5
-31 -24 -44 -43 -13 -19 -33 -36 -45 -38 -17 -3 -21 -12 -26 -65 -3 -34 -2
-82 2 -107 5 -25 9 -37 10 -27 0 10 7 17 14 14 6 -2 11 -16 9 -31 -2 -21 1
-26 15 -24 16 3 18 -5 18 -57 -1 -33 -4 -75 -8 -92 -4 -20 -2 -33 3 -33 6 0
10 14 10 31 0 22 9 39 30 57 17 15 30 34 30 44 0 9 5 20 10 23 6 3 10 17 10
31 0 15 4 23 11 19 17 -11 52 34 51 66 0 18 7 34 19 43 11 8 19 20 18 27 -1 8
1 22 6 33 5 12 2 28 -9 48 -11 17 -15 39 -12 52 3 13 -2 38 -10 56 -14 27 -14
34 -3 41 17 10 6 22 -24 25 -12 1 -25 3 -29 3 -4 1 -7 11 -5 22 2 23 -17 37
-27 20z"/>
<path d="M2278 1083 c-22 -5 -24 -23 -3 -23 8 0 15 -7 15 -15 0 -10 10 -15 30
-15 25 0 30 4 30 24 0 32 -25 42 -72 29z"/>
<path d="M1814 996 c-8 -22 3 -33 18 -18 9 9 9 15 0 24 -9 9 -13 7 -18 -6z"/>
<path d="M2181 907 c-7 -13 -13 -32 -15 -42 -2 -15 -12 -21 -39 -23 -29 -3
-37 -8 -37 -23 0 -10 5 -19 10 -19 6 0 15 -12 20 -26 l10 -26 25 36 c14 20 25
46 25 56 0 11 6 20 14 20 21 0 28 29 13 51 -13 18 -14 18 -26 -4z"/>
<path d="M2180 481 c0 -5 7 -12 16 -15 14 -5 15 -4 4 9 -14 17 -20 19 -20 6z"/>
<path d="M1980 423 c0 -5 4 -15 10 -23 11 -18 25 -7 17 15 -6 15 -27 21 -27 8z"/>
<path d="M3562 330 c0 -14 2 -19 5 -12 2 6 2 18 0 25 -3 6 -5 1 -5 -13z"/>
<path d="M2040 313 c0 -28 -17 -38 -36 -22 -14 11 -16 9 -12 -16 3 -29 2 -30
-47 -35 -27 -3 -59 -12 -70 -20 -24 -17 -61 -85 -80 -145 -7 -22 -16 -48 -20
-57 -5 -13 -2 -18 9 -18 9 0 16 4 16 9 0 4 21 31 48 59 57 62 125 89 178 72
32 -11 101 -77 123 -119 9 -15 21 -21 47 -21 34 0 36 2 30 26 -25 98 -107 242
-139 244 -4 0 -16 15 -27 33 -17 28 -20 29 -20 10z"/>
<path d="M1583 273 c-17 -3 -23 -11 -23 -33 0 -15 -7 -30 -15 -34 -10 -4 -15
-20 -15 -51 0 -33 -4 -45 -15 -45 -12 0 -15 -13 -15 -55 0 -30 5 -55 10 -55 6
0 10 4 10 9 0 5 9 7 20 4 11 -3 20 0 20 6 0 5 -7 8 -15 5 -11 -5 -15 1 -15 21
0 31 14 61 45 95 13 14 25 34 27 45 2 11 9 21 16 21 6 1 17 2 24 3 7 1 5 8 -5
19 -10 10 -17 26 -17 35 0 9 -3 16 -7 16 -5 -1 -18 -4 -30 -6z"/>
<path d="M1420 231 c-6 -16 -10 -43 -8 -62 4 -40 28 -52 28 -14 0 23 2 26 15
15 21 -17 26 -9 32 45 6 45 5 45 -24 45 -24 0 -33 -6 -43 -29z"/>
<path d="M2349 188 c-1 -13 0 -27 1 -33 1 -5 3 -20 4 -32 0 -13 6 -23 13 -23
6 0 19 -10 27 -22 l16 -22 0 26 c0 28 -35 114 -50 123 -6 3 -11 -4 -11 -17z"/>
<path d="M1285 55 c-9 -26 -15 -48 -12 -51 3 -3 12 16 21 42 21 62 14 68 -9 9z"/>
<path d="M1351 76 c-15 -18 -10 -76 6 -76 9 0 13 15 13 45 0 49 -2 52 -19 31z"/>
<path d="M2400 27 c0 -17 5 -27 15 -27 19 0 19 9 0 34 -14 19 -15 19 -15 -7z"/>
</g>
</svg>
